<?xml version="1.0" standalone="no"?>
<!DOCTYPE svg PUBLIC "-//W3C//DTD SVG 20010904//EN"
 "http://www.w3.org/TR/2001/REC-SVG-20010904/DTD/svg10.dtd">
<svg version="1.0" xmlns="http://www.w3.org/2000/svg"
 width="896.000000pt" height="896.000000pt" viewBox="0 0 896.000000 896.000000"
 preserveAspectRatio="xMidYMid meet">
<metadata>
Created by potrace 1.11, written by Peter Selinger 2001-2013
</metadata>
<g transform="translate(0.000000,896.000000) scale(0.100000,-0.100000)"
fill="#000000" stroke="none">
<path d="M480 8199 l0 -687 3883 2 3882 1 0 685 0 685 -3882 0 -3883 0 0 -686z"/>
<path d="M480 5456 c0 -538 3 -685 13 -688 6 -2 1754 -4 3882 -3 l3870 1 1
686 2 687 -3884 0 -3884 0 0 -683z"/>
<path d="M497 3392 c-16 -3 -17 -55 -17 -688 l0 -684 33 -1 c17 0 55 0 82 1
55 1 80 0 110 -4 11 -1 27 1 36 6 9 4 19 5 22 2 5 -5 94 -7 302 -5 50 1 101 0
115 -2 14 -2 32 0 41 5 9 4 19 5 22 1 10 -9 257 -9 257 0 0 5 5 5 11 2 15 -10
309 -11 309 -2 0 5 5 5 11 2 6 -4 101 -6 212 -5 200 2 223 1 262 -4 11 -1 28
1 37 6 9 4 19 4 22 -1 3 -4 17 -6 30 -4 22 5 147 -117 996 -966 746 -746 975
-969 985 -961 7 6 444 442 971 970 528 528 964 958 970 956 6 -2 17 0 24 4 8
5 18 6 23 3 15 -9 257 -9 257 0 0 5 5 5 11 2 15 -10 309 -11 309 -2 0 5 5 5
11 2 6 -4 101 -6 212 -5 200 2 223 1 262 -4 11 -1 27 1 36 6 9 4 19 5 22 2 5
-5 94 -7 302 -5 50 1 101 0 115 -2 14 -2 32 0 41 5 9 4 19 5 22 2 5 -5 112 -7
243 -5 l42 1 -2 686 -1 686 -1254 1 -1253 0 -687 -687 -687 -687 -686 687
-687 686 -1239 2 c-681 0 -1246 0 -1255 -2z"/>
</g>
</svg>
