<svg version="1.0" xmlns="http://www.w3.org/2000/svg" width="1194.667" height="1194.667" viewBox="0 0 896 896"><path d="M48 76.1v68.7l388.3-.2 388.2-.1V7.5H48v68.6zm0 274.3c0 53.8.3 68.5 1.3 68.8.6.2 175.4.4 388.2.3l387-.1.1-68.6.2-68.7H48v68.3zm1.7 206.4c-1.6.3-1.7 5.5-1.7 68.8V694l3.3.1c1.7 0 5.5 0 8.2-.1 5.5-.1 8 0 11 .4 1.1.1 2.7-.1 3.6-.6.9-.4 1.9-.5 2.2-.2.5.5 9.4.7 30.2.5 5-.1 10.1 0 11.5.2 1.4.2 3.2 0 4.1-.5.9-.4 1.9-.5 2.2-.1 1 .9 25.7.9 25.7 0 0-.5.5-.5 1.1-.2 1.5 1 30.9 1.1 30.9.2 0-.5.5-.5 1.1-.2.6.4 10.1.6 21.2.5 20-.2 22.3-.1 26.2.4 1.1.1 2.8-.1 3.7-.6.9-.4 1.9-.4 2.2.1.3.4 1.7.6 3 .4 2.2-.5 14.7 11.7 99.6 96.6 74.6 74.6 97.5 96.9 98.5 96.1.7-.6 44.4-44.2 97.1-97 52.8-52.8 96.4-95.8 97-95.6.6.2 1.7 0 2.4-.4.8-.5 1.8-.6 2.3-.3 1.5.9 25.7.9 25.7 0 0-.5.5-.5 1.1-.2 1.5 1 30.9 1.1 30.9.2 0-.5.5-.5 1.1-.2.6.4 10.1.6 21.2.5 20-.2 22.3-.1 26.2.4 1.1.1 2.7-.1 3.6-.6.9-.4 1.9-.5 2.2-.2.5.5 9.4.7 30.2.5 5-.1 10.1 0 11.5.2 1.4.2 3.2 0 4.1-.5.9-.4 1.9-.5 2.2-.2.5.5 11.2.7 24.3.5l4.2-.1-.2-68.6-.1-68.6-125.4-.1H573.8l-68.7 68.7-68.7 68.7-68.6-68.7-68.7-68.6-123.9-.2c-68.1 0-124.6 0-125.5.2z"/></svg>